<?xml version="1.0" encoding="UTF-8"?>
<svg version="1.1" xmlns="http://www.w3.org/2000/svg" width="450" height="450">
<path d="M0 0 C39.93 0 79.86 0 121 0 C119.87366791 6.75799253 119.87366791 6.75799253 117.77734375 10.171875 C117.32504395 10.91421387 116.87274414 11.65655273 116.40673828 12.42138672 C115.92188965 13.1898291 115.43704102 13.95827148 114.9375 14.75 C114.44233887 15.5455127 113.94717773 16.34102539 113.43701172 17.16064453 C103.51432191 32.87985232 103.51432191 32.87985232 96 38 C92.89311218 38.48101807 92.89311218 38.48101807 89.3737793 38.45410156 C88.72931351 38.45468567 88.08484772 38.45526978 87.42085266 38.45587158 C85.30474728 38.45309954 83.19007595 38.42205361 81.07421875 38.390625 C79.60163645 38.38315937 78.12904417 38.37746796 76.65644836 38.37347412 C72.79121194 38.35824282 68.92658215 38.31898363 65.06158447 38.2746582 C61.11340541 38.23365082 57.16512778 38.2154515 53.21679688 38.1953125 C45.47758881 38.15248605 37.73887959 38.08426624 30 38 C29.87565582 38.72069168 29.75131165 39.44138336 29.62319946 40.18391418 C28.71897319 45.30935361 27.76327629 50.33049985 26.2734375 55.32421875 C25.809375 56.89526367 25.809375 56.89526367 25.3359375 58.49804688 C24.86027344 60.07682617 24.86027344 60.07682617 24.375 61.6875 C24.05015625 62.78255859 23.7253125 63.87761719 23.390625 65.00585938 C22.59888749 67.67215188 21.80195126 70.33676539 21 73 C25.58635783 67.28765829 30.13765542 61.55970713 34.5546875 55.71484375 C36 54 36 54 38 53 C39.60920909 52.90729005 41.22226034 52.87807687 42.83413696 52.87974548 C43.85499893 52.87837082 44.8758609 52.87699615 45.92765808 52.87557983 C47.05190689 52.87917511 48.1761557 52.88277039 49.33447266 52.88647461 C50.51494675 52.88632858 51.69542084 52.88618256 52.91166687 52.8860321 C56.15319775 52.88661041 59.39468575 52.89163417 62.63620806 52.89860606 C66.02214911 52.90484694 69.40809095 52.90544398 72.79403687 52.90663147 C79.2078101 52.90974261 85.62156634 52.91795309 92.03533208 52.92798096 C99.33632547 52.93914881 106.63731965 52.94465424 113.93831944 52.94967639 C128.95888911 52.96013588 143.97944286 52.97773114 159 53 C158.42720235 56.69976388 157.92588469 59.67130835 156.03125 62.91796875 C155.6293042 63.60995361 155.2273584 64.30193848 154.81323242 65.01489258 C154.37986572 65.73185303 153.94649902 66.44881348 153.5 67.1875 C152.83158081 68.30644653 152.83158081 68.30644653 152.1496582 69.44799805 C147.25908219 77.46688166 141.83290489 85.60341888 134 91 C131.15454102 91.47428894 131.15454102 91.47428894 128.00390625 91.43823242 C126.81917725 91.43470261 125.63444824 91.43117279 124.41381836 91.42753601 C122.50741577 91.39186272 122.50741577 91.39186272 120.5625 91.35546875 C118.55670725 91.34319796 116.55091447 91.33093125 114.54512024 91.31890583 C111.74135078 91.29698668 108.93795826 91.25648938 106.13439941 91.21636963 C101.22839136 91.15001156 96.32207245 91.11322533 91.41577148 91.07600403 C88.80583818 91.05433133 86.19595158 91.02566873 83.58618164 90.98930359 C81.80908813 90.96982414 81.80908813 90.96982414 79.99609375 90.94995117 C78.43652954 90.92852303 78.43652954 90.92852303 76.84545898 90.90666199 C73.61590406 90.93480497 73.61590406 90.93480497 69 92 C65.7 103.55 62.4 115.1 59 127 C63.25811852 121.32629723 63.25811852 121.32629723 67.484375 115.62890625 C68.23203125 114.61699219 68.9796875 113.60507813 69.75 112.5625 C70.50796875 111.53253906 71.2659375 110.50257813 72.046875 109.44140625 C74 107 74 107 76 106 C77.57291208 105.90996034 79.14961575 105.88243491 80.72509766 105.88647461 C81.70596344 105.88655014 82.68682922 105.88662567 83.69741821 105.88670349 C84.75891083 105.89186478 85.82040344 105.89702606 86.9140625 105.90234375 C88.54122696 105.90446617 88.54122696 105.90446617 90.20126343 105.90663147 C93.67587 105.91224198 97.15041281 105.92479628 100.625 105.9375 C102.97656157 105.94251365 105.32812415 105.94707679 107.6796875 105.95117188 C113.45314686 105.96221482 119.22656888 105.97896321 125 106 C125.33 106.99 125.66 107.98 126 109 C125.34 109 124.68 109 124 109 C123.63068359 109.84884766 123.63068359 109.84884766 123.25390625 110.71484375 C121.78463776 113.39248258 120.02247565 115.33043612 117.9375 117.5625 C114.65068792 121.14428239 111.4950668 124.7830077 108.4375 128.5625 C97.23011364 142.38494318 97.23011364 142.38494318 94 144 C90.93757679 144.08711775 87.89813535 144.1154846 84.8359375 144.09765625 C83.92872955 144.0962413 83.02152161 144.09482635 82.08682251 144.09336853 C79.18284845 144.08776096 76.27895085 144.07520718 73.375 144.0625 C71.40885528 144.05748598 69.44270935 144.0529229 67.4765625 144.04882812 C62.6510121 144.03778906 57.82551903 144.02051935 53 144 C52.78085938 145.25039062 52.56171875 146.50078125 52.3359375 147.7890625 C50.77728454 155.56041302 48.5547182 163.15653988 46.36914062 170.77001953 C45.62176435 173.3863269 44.89293976 176.00739399 44.1640625 178.62890625 C43.68603064 180.3024079 43.20690272 181.97559695 42.7265625 183.6484375 C42.51287018 184.42762543 42.29917786 185.20681335 42.07901001 186.00961304 C39.86311437 193.56866375 39.86311437 193.56866375 36 196 C33.0139263 196.52140593 30.10133722 196.46560365 27.078125 196.390625 C26.21813904 196.38496521 25.35815308 196.37930542 24.47210693 196.37347412 C21.73083351 196.35111951 18.99087696 196.30092602 16.25 196.25 C14.38934182 196.22993376 12.52866311 196.21168321 10.66796875 196.1953125 C6.11147334 196.15125784 1.55595978 196.08223754 -3 196 C-4.04694331 192.80865193 -3.95024454 190.998842 -2.86743164 187.83837891 C-2.59265488 187.01203949 -2.31787811 186.18570007 -2.03477478 185.33432007 C-1.72552567 184.43251007 -1.41627655 183.53070007 -1.09765625 182.6015625 C1.85506643 173.66726077 4.59913389 164.69394964 7.19140625 155.6484375 C7.54834564 154.40531799 7.90528503 153.16219849 8.27304077 151.88140869 C9.18770155 148.68979487 10.10031079 145.4976063 11.01147461 142.30499268 C12.65053866 136.56409276 14.29587643 130.82498676 15.94140625 125.0859375 C16.28902008 123.87290955 16.63663391 122.65988159 16.99478149 121.41009521 C19.91365427 111.2480937 22.92534039 101.11585918 26 91 C22.37 91.33 18.74 91.66 15 92 C14.65497437 93.32402832 14.65497437 93.32402832 14.30297852 94.67480469 C11.88646958 103.85287424 9.3200261 112.97595733 6.59057617 122.06591797 C6.14914636 123.54219129 5.71208341 125.01977634 5.27905273 126.49853516 C4.6419375 128.67378457 3.99240184 130.84496555 3.33984375 133.015625 C3.14913803 133.67492004 2.95843231 134.33421509 2.76194763 135.01348877 C1.71258078 138.4467326 0.83831929 140.76500831 -2 143 C-3.87931824 143.32279968 -3.87931824 143.32279968 -6.01245117 143.2487793 C-6.81305466 143.22853195 -7.61365814 143.20828461 -8.43852234 143.18742371 C-9.29798965 143.15006607 -10.15745697 143.11270844 -11.04296875 143.07421875 C-11.9265657 143.04777786 -12.81016266 143.02133698 -13.72053528 142.99409485 C-16.54354198 142.90630236 -19.36526649 142.7971642 -22.1875 142.6875 C-24.10086547 142.62424424 -26.01427742 142.56237808 -27.92773438 142.50195312 C-32.61918118 142.35075675 -37.30958952 142.18041256 -42 142 C-40.86256887 136.68170166 -39.62061263 131.43845565 -38.08203125 126.21875 C-37.71835449 124.97738281 -37.35467773 123.73601562 -36.97998047 122.45703125 C-36.78966248 121.8120166 -36.59934448 121.16700195 -36.40325928 120.50244141 C-35.38635065 117.05552144 -34.3786791 113.60590484 -33.37109375 110.15625 C-33.06700592 109.11597656 -33.06700592 109.11597656 -32.7567749 108.0546875 C-30.65126851 100.83508007 -28.62964799 93.59237386 -26.64770508 86.33789062 C-24.79443353 79.62770705 -22.78103935 72.97192416 -20.7421875 66.31640625 C-18.21140091 58.05200033 -15.7515296 49.77043617 -13.359375 41.46484375 C-13.0614505 40.43243561 -12.763526 39.40002747 -12.45657349 38.33633423 C-11.24186556 34.12425342 -10.02863776 29.91177793 -8.82324219 25.69702148 C-7.92385973 22.55559346 -7.01720997 19.41633786 -6.109375 16.27734375 C-5.84058533 15.33052231 -5.57179565 14.38370087 -5.29486084 13.40818787 C-4.9086557 12.07872887 -4.9086557 12.07872887 -4.51464844 10.72241211 C-4.1832486 9.56738441 -4.1832486 9.56738441 -3.84515381 8.38902283 C-2.81924411 5.48905165 -1.37566882 2.75133764 0 0 Z " fill="#FDCA1C" transform="translate(167,96)"/>
<path d="M0 0 C0.74314453 -0.01224609 1.48628906 -0.02449219 2.25195312 -0.03710938 C7.15243739 -0.04999408 11.16369353 0.62968803 15.8125 2.1875 C15.8125 3.8375 15.8125 5.4875 15.8125 7.1875 C10.16850642 9.62814587 4.83498522 9.38039099 -1.1875 9.1875 C-1.5175 10.5075 -1.8475 11.8275 -2.1875 13.1875 C-0.58068359 13.17009766 -0.58068359 13.17009766 1.05859375 13.15234375 C2.45572743 13.14296701 3.85286299 13.13386669 5.25 13.125 C5.95705078 13.11662109 6.66410156 13.10824219 7.39257812 13.09960938 C9.19943559 13.09096412 11.00637603 13.13529989 12.8125 13.1875 C13.8125 14.1875 13.8125 14.1875 13.875 17.25 C13.854375 18.219375 13.83375 19.18875 13.8125 20.1875 C10.50179162 21.18859515 7.51165231 21.29106134 4.0625 21.25 C3.07765625 21.24097656 2.0928125 21.23195313 1.078125 21.22265625 C0.33046875 21.21105469 -0.4171875 21.19945312 -1.1875 21.1875 C-1.5175 23.1675 -1.8475 25.1475 -2.1875 27.1875 C-0.36412109 27.17009766 -0.36412109 27.17009766 1.49609375 27.15234375 C3.08072764 27.14296722 4.66536318 27.13386687 6.25 27.125 C7.05244141 27.11662109 7.85488281 27.10824219 8.68164062 27.09960938 C10.72545221 27.0909857 12.76933902 27.1352185 14.8125 27.1875 C15.8125 28.1875 15.8125 28.1875 15.875 31.25 C15.854375 32.219375 15.83375 33.18875 15.8125 34.1875 C13.25526771 35.46611615 11.44512898 35.30086609 8.5859375 35.28515625 C7.5546875 35.28193359 6.5234375 35.27871094 5.4609375 35.27539062 C3.84058594 35.26282227 3.84058594 35.26282227 2.1875 35.25 C0.55554688 35.24323242 0.55554688 35.24323242 -1.109375 35.23632812 C-3.80213789 35.22451776 -6.49479188 35.20804778 -9.1875 35.1875 C-11.17946371 31.86328411 -11.43386523 29.35178932 -11.41796875 25.50390625 C-11.41603516 24.41142578 -11.41410156 23.31894531 -11.41210938 22.19335938 C-11.39986328 21.05705078 -11.38761719 19.92074219 -11.375 18.75 C-11.37435547 17.61755859 -11.37371094 16.48511719 -11.37304688 15.31835938 C-11.31958934 5.23864369 -11.31958934 5.23864369 -10.1875 1.1875 C-6.98110736 -0.41569632 -3.51838698 0.00297412 0 0 Z " fill="#FBFAFA" transform="translate(197.1875,320.8125)"/>
<path d="M0 0 C5.24934383 -0.52493438 5.24934383 -0.52493438 8 0 C12 4.6 12 4.6 12 8 C14.0495825 6.14561583 15.03732988 4.91082306 16.125 2.3125 C18 0 18 0 20.19140625 -0.3203125 C22.48031557 -0.31314846 24.72174946 -0.2149293 27 0 C27 4.0116196 25.09512932 6.42093858 23 9.6875 C22.6184375 10.29400391 22.236875 10.90050781 21.84375 11.52539062 C20.90181528 13.02071199 19.95168625 14.51086593 19 16 C19.93347358 17.75215106 20.8719532 19.50163563 21.8125 21.25 C22.33457031 22.22453125 22.85664063 23.1990625 23.39453125 24.203125 C24.89344149 26.98680355 24.89344149 26.98680355 26.76171875 29.171875 C27.17035156 29.77515625 27.57898438 30.3784375 28 31 C27.67 31.99 27.34 32.98 27 34 C20.53895509 34.36571952 20.53895509 34.36571952 18.25 32.8125 C14 26.65 14 26.65 14 24 C13.34 24 12.68 24 12 24 C11.67 25.65 11.34 27.3 11 29 C10.34 29 9.68 29 9 29 C8.87625 29.639375 8.7525 30.27875 8.625 30.9375 C8.41875 31.618125 8.2125 32.29875 8 33 C5.29120665 34.35439668 2.99066732 34.06501451 0 34 C-0.495 32.515 -0.495 32.515 -1 31 C0.63768621 28.21853294 2.39190312 25.61346017 4.28320312 23.00195312 C6.32798417 19.95781635 7.10207421 18.5407905 6.41015625 14.875 C4.75303123 11.49648473 2.95253068 8.27894585 1.0234375 5.05078125 C0 3 0 3 0 0 Z " fill="#FBFBFB" transform="translate(216,322)"/>
<path d="M0 0 C0.98355469 -0.00257813 1.96710938 -0.00515625 2.98046875 -0.0078125 C5.69355607 0.11942194 8.16983657 0.51626948 10.8125 1.125 C10.8125 3.435 10.8125 5.745 10.8125 8.125 C7.13862505 8.97798376 3.7677607 9.23289471 0 9.1875 C-0.97582031 9.17847656 -1.95164063 9.16945313 -2.95703125 9.16015625 C-3.69308594 9.14855469 -4.42914063 9.13695312 -5.1875 9.125 C-5.1875 10.775 -5.1875 12.425 -5.1875 14.125 C-0.8975 14.125 3.3925 14.125 7.8125 14.125 C8.1425 15.775 8.4725 17.425 8.8125 19.125 C6.8125 21.125 6.8125 21.125 3.9921875 21.3203125 C0.93229167 21.25520833 -2.12760417 21.19010417 -5.1875 21.125 C-5.1875 25.085 -5.1875 29.045 -5.1875 33.125 C-10.1875 35.125 -10.1875 35.125 -14.1875 34.125 C-14.1875 23.235 -14.1875 12.345 -14.1875 1.125 C-9.22894405 0.50518051 -4.900267 -0.01294654 0 0 Z " fill="#F9F9F9" transform="translate(146.1875,320.875)"/>
<path d="M0 0 C39.93 0 79.86 0 121 0 C119.87301587 6.76190476 119.87301587 6.76190476 118.03125 9.91796875 C117.6293042 10.60995361 117.2273584 11.30193848 116.81323242 12.01489258 C116.16318237 13.09033325 116.16318237 13.09033325 115.5 14.1875 C115.05438721 14.93346436 114.60877441 15.67942871 114.1496582 16.44799805 C109.25908219 24.46688166 103.83290489 32.60341888 96 38 C93.15454102 38.47428894 93.15454102 38.47428894 90.00390625 38.43823242 C88.81917725 38.43470261 87.63444824 38.43117279 86.41381836 38.42753601 C84.50741577 38.39186272 84.50741577 38.39186272 82.5625 38.35546875 C80.55670725 38.34319796 78.55091447 38.33093125 76.54512024 38.31890583 C73.74135078 38.29698668 70.93795826 38.25648938 68.13439941 38.21636963 C63.22839136 38.15001156 58.32207245 38.11322533 53.41577148 38.07600403 C50.80583818 38.05433133 48.19595158 38.02566873 45.58618164 37.98930359 C43.80908813 37.96982414 43.80908813 37.96982414 41.99609375 37.94995117 C40.95638428 37.93566574 39.9166748 37.92138031 38.84545898 37.90666199 C35.61590406 37.93480497 35.61590406 37.93480497 31 39 C29.68 43.29 28.36 47.58 27 52 C25.6552994 46.6211976 26.23045481 42.30863557 28 37 C30.66233645 35.66883178 32.80054025 35.78553474 35.78125 35.68359375 C37.00062256 35.64161865 38.21999512 35.59964355 39.47631836 35.55639648 C40.81753169 35.51629718 42.15875942 35.47667716 43.5 35.4375 C44.17418976 35.41632111 44.84837952 35.39514221 45.54299927 35.37332153 C62.02674805 34.86140688 78.51032086 34.90047088 95 35 C95 34.34 95 33.68 95 33 C95.99 32.67 96.98 32.34 98 32 C98.33 31.34 98.66 30.68 99 30 C100 28 100 28 103 27 C104.18519265 24.56723614 105 22.71982714 105 20 C105.99 19.67 106.98 19.34 108 19 C109.71567661 15.49705129 109.71567661 15.49705129 111 12 C111.99 12 112.98 12 114 12 C113.505 10.515 113.505 10.515 113 9 C113.66 9 114.32 9 115 9 C115.33 7.02 115.66 5.04 116 3 C115.3758168 3.00222061 114.75163361 3.00444122 114.10853577 3.00672913 C107.63657196 3.0287808 101.16461875 3.0439061 94.69262695 3.05493164 C92.27432828 3.05997349 89.85603267 3.06680678 87.43774414 3.07543945 C83.97020717 3.08751157 80.50271034 3.09322963 77.03515625 3.09765625 C75.94662857 3.10281754 74.85810089 3.10797882 73.73658752 3.11329651 C72.23514442 3.11340981 72.23514442 3.11340981 70.70336914 3.11352539 C69.37433311 3.11685631 69.37433311 3.11685631 68.01844788 3.12025452 C66 3 66 3 65 2 C62.97585009 1.87624831 60.94742263 1.82202689 58.91967773 1.79467773 C57.61840439 1.77473251 56.31713104 1.75478729 54.97642517 1.73423767 C53.5454826 1.71725201 52.11453875 1.70037325 50.68359375 1.68359375 C49.2277008 1.66303094 47.77181391 1.64203466 46.31593323 1.62062073 C42.47727353 1.56533039 38.63855935 1.51595198 34.79980469 1.46777344 C30.88536712 1.41760909 26.97100904 1.36189664 23.05664062 1.30664062 C15.37116099 1.19897397 7.68561543 1.09754807 0 1 C0 0.67 0 0.34 0 0 Z " fill="#E4CA61" transform="translate(205,149)"/>
<path d="M0 0 C7.92 0 15.84 0 24 0 C25 5 25 5 24 7 C21.45058627 7.31241371 18.99638487 7.51303421 16.4375 7.625 C15.37112305 7.68300781 15.37112305 7.68300781 14.28320312 7.7421875 C12.52257575 7.83671783 10.76132272 7.91945817 9 8 C8.67 9.65 8.34 11.3 8 13 C12.62 13 17.24 13 22 13 C22 14.98 22 16.96 22 19 C21 20 21 20 18.05859375 20.09765625 C16.86363281 20.08605469 15.66867187 20.07445312 14.4375 20.0625 C12.64119141 20.04896484 12.64119141 20.04896484 10.80859375 20.03515625 C9.88175781 20.02355469 8.95492187 20.01195312 8 20 C8.01160156 20.92683594 8.02320313 21.85367187 8.03515625 22.80859375 C8.04417969 24.00613281 8.05320313 25.20367187 8.0625 26.4375 C8.07410156 27.63246094 8.08570313 28.82742188 8.09765625 30.05859375 C8 33 8 33 7 34 C4 34.125 4 34.125 1 34 C0 33 0 33 -0.11352539 29.85717773 C-0.11336633 28.46597303 -0.10767506 27.07476239 -0.09765625 25.68359375 C-0.0962413 24.95253922 -0.09482635 24.22148468 -0.09336853 23.46827698 C-0.08775408 21.12464368 -0.07519922 18.78110461 -0.0625 16.4375 C-0.05748686 14.85221492 -0.05292363 13.26692834 -0.04882812 11.68164062 C-0.03862921 7.78769457 -0.01905687 3.89395323 0 0 Z " fill="#FBFAFB" transform="translate(247,322)"/>
<path d="M0 0 C0 1.65 0 3.3 0 5 C-2 6 -2 6 -10 6 C-10 14.58 -10 23.16 -10 32 C-12.97 32 -15.94 32 -19 32 C-19.33 23.75 -19.66 15.5 -20 7 C-22.64 6.67 -25.28 6.34 -28 6 C-28.93423645 2.98968256 -29.04449911 2.13349732 -28 -1 C-18.8890992 -2.73540968 -8.76644858 -3.33959946 0 0 Z " fill="#F8F8F8" transform="translate(312,323)"/>
<path d="M0 0 C0 8.58 0 17.16 0 26 C4.84649196 25.96049276 4.84649196 25.96049276 9.69287109 25.90991211 C14.77777778 25.88888889 14.77777778 25.88888889 17 27 C16.67 28.98 16.34 30.96 16 33 C-3.23404255 35.38297872 -3.23404255 35.38297872 -8 33 C-9.19046403 27.34152856 -9.15067031 21.70048431 -9.125 15.9375 C-9.12886719 15.06544922 -9.13273438 14.19339844 -9.13671875 13.29492188 C-9.12988926 8.78404469 -9.11250733 4.400741 -8 0 C-6 -1 -6 -1 0 0 Z " fill="#FAF9F9" transform="translate(168,322)"/>
<path d="M0 0 C39.93 0 79.86 0 121 0 C119.87366791 6.75799253 119.87366791 6.75799253 117.77734375 10.171875 C117.32488281 10.914375 116.87242187 11.656875 116.40625 12.421875 C115.9215625 13.19015625 115.436875 13.9584375 114.9375 14.75 C114.44378906 15.5440625 113.95007813 16.338125 113.44140625 17.15625 C104.13661595 31.9089227 104.13661595 31.9089227 98 36 C98 32.37 98 28.74 98 25 C101 24 101 24 105 24 C105.28875 23.4225 105.5775 22.845 105.875 22.25 C106.431875 21.13625 106.431875 21.13625 107 20 C107.4640625 19.01 107.4640625 19.01 107.9375 18 C109 16 109 16 110.5625 14 C112.03193986 11.95556194 112.56164648 10.45477972 113 8 C113.66 8 114.32 8 115 8 C114.11785113 5.11785113 114.11785113 5.11785113 113 3 C109.25801961 2.29396596 105.81207261 2 102 2 C100.54887468 1.98913142 99.09776307 1.97633264 97.64666748 1.96203613 C96.35105392 1.9494149 96.35105392 1.9494149 95.02926636 1.9365387 C94.08987213 1.92718796 93.15047791 1.91783722 92.18261719 1.90820312 C91.18716888 1.89844955 90.19172058 1.88869598 89.16610718 1.87864685 C85.87636126 1.84636712 82.58661816 1.81380962 79.296875 1.78125 C77.01572689 1.75881266 74.73457862 1.73639264 72.45343018 1.71398926 C66.44962394 1.65497869 60.44582004 1.5957326 54.4420166 1.53643799 C48.31551246 1.47597307 42.18900614 1.41573016 36.0625 1.35546875 C24.04166452 1.23719684 12.0208315 1.11867621 0 1 C0 0.67 0 0.34 0 0 Z " fill="#EDD052" transform="translate(167,96)"/>
<path d="M0 0 C2.97 0 5.94 0 9 0 C9 10.89 9 21.78 9 33 C6.03 33 3.06 33 0 33 C0 22.11 0 11.22 0 0 Z " fill="#F9F8F8" transform="translate(273,322)"/>
<path d="M0 0 C0.33 0 0.66 0 1 0 C1.51423305 10.8750768 1.51423305 10.8750768 -2 16 C-2.04165763 17.99956611 -2.04165763 20.00043389 -2 22 C-2.83766665 24.51299995 -3.82830593 26.69476609 -5.125 29 C-6.15658265 30.97046189 -6.15658265 30.97046189 -5.9375 33.1875 C-6.01632381 36.73457135 -7.09838566 39.54417074 -8.27734375 42.8671875 C-9.07269443 45.05312016 -9.07269443 45.05312016 -9.5 47.625 C-10.20680439 50.98232085 -11.59032463 53.87419809 -13 57 C-13.66 57 -14.32 57 -15 57 C-15 57.99 -15 58.98 -15 60 C-1.8 59.67 11.4 59.34 25 59 C25 59.66 25 60.32 25 61 C20.46023488 62.17346409 16.06214686 62.03915118 11.41796875 61.87890625 C10.19670036 61.84348976 10.19670036 61.84348976 8.95075989 61.80735779 C6.36281301 61.73108411 3.77519318 61.64690482 1.1875 61.5625 C-0.57224988 61.50924292 -2.33201549 61.4565028 -4.09179688 61.40429688 C-8.39473643 61.27551841 -12.69740017 61.13965162 -17 61 C-15.34856875 52.95366477 -13.0693718 45.12533399 -10.75 37.25 C-10.1449474 35.18364543 -9.54094244 33.11698647 -8.93699646 31.05030823 C-8.53462184 29.67361606 -8.13192355 28.29701845 -7.72889709 26.92051697 C-5.94008433 20.8082994 -4.18223378 14.68744524 -2.4375 8.5625 C-2.18645508 7.68174805 -1.93541016 6.80099609 -1.67675781 5.89355469 C-1.11723608 3.92920796 -0.55850831 1.9646351 0 0 Z " fill="#E7A821" transform="translate(142,177)"/>
<path d="M0 0 C0.33 0.66 0.66 1.32 1 2 C1.66 2 2.32 2 3 2 C2.34 3.98 1.68 5.96 1 8 C1.66 8.33 2.32 8.66 3 9 C2.65066406 9.44730469 2.30132812 9.89460938 1.94140625 10.35546875 C-0.71558705 13.88558166 -2.55049482 16.50494821 -3 21 C-3.93023256 27.86046512 -3.93023256 27.86046512 -5 30 C7.54 30.33 20.08 30.66 33 31 C31 33 31 33 27.19287109 33.22705078 C25.5530258 33.22673346 23.91315983 33.21539681 22.2734375 33.1953125 C21.41062164 33.1924826 20.54780579 33.18965271 19.65884399 33.18673706 C16.8974228 33.17552333 14.1363235 33.15041684 11.375 33.125 C9.50521301 33.11497173 7.63542095 33.10584562 5.765625 33.09765625 C1.17695891 33.07558012 -3.41146593 33.04104234 -8 33 C-9.02122088 29.43812356 -8.81918884 27.58571181 -7.63671875 24.04296875 C-7.32669922 23.09486328 -7.01667969 22.14675781 -6.69726562 21.16992188 C-6.36404297 20.18572266 -6.03082031 19.20152344 -5.6875 18.1875 C-5.04474059 16.24376462 -4.40279511 14.29975988 -3.76171875 12.35546875 C-3.45669434 11.43813965 -3.15166992 10.52081055 -2.83740234 9.57568359 C-1.80621027 6.40394121 -0.88352325 3.21566584 0 0 Z " fill="#E4A81C" transform="translate(172,259)"/>
<path d="M0 0 C1.62291962 0.00848969 1.62291962 0.00848969 3.27862549 0.01715088 C6.73307607 0.03953501 10.18648811 0.08973709 13.640625 0.140625 C15.98305793 0.16068728 18.32550713 0.17893852 20.66796875 0.1953125 C26.4092083 0.23940645 32.14984245 0.30633945 37.890625 0.390625 C38.385625 1.875625 38.385625 1.875625 38.890625 3.390625 C38.230625 3.390625 37.570625 3.390625 36.890625 3.390625 C36.64441406 3.95652344 36.39820313 4.52242187 36.14453125 5.10546875 C34.67526276 7.78310758 32.91310065 9.72106112 30.828125 11.953125 C26.62035299 16.52797244 22.69612772 21.27042085 18.8359375 26.140625 C16.890625 28.390625 16.890625 28.390625 13.890625 30.390625 C14.220625 28.740625 14.550625 27.090625 14.890625 25.390625 C16.210625 25.060625 17.530625 24.730625 18.890625 24.390625 C18.99375 23.75125 19.096875 23.111875 19.203125 22.453125 C19.43 21.7725 19.656875 21.091875 19.890625 20.390625 C20.880625 20.060625 21.870625 19.730625 22.890625 19.390625 C22.395625 17.905625 22.395625 17.905625 21.890625 16.390625 C23.540625 15.730625 25.190625 15.070625 26.890625 14.390625 C26.890625 13.400625 26.890625 12.410625 26.890625 11.390625 C27.550625 11.390625 28.210625 11.390625 28.890625 11.390625 C30.14727478 8.48462239 30.890625 6.59457916 30.890625 3.390625 C32.210625 3.390625 33.530625 3.390625 34.890625 3.390625 C34.890625 2.730625 34.890625 2.070625 34.890625 1.390625 C19.710625 1.720625 4.530625 2.050625 -11.109375 2.390625 C-11.439375 3.380625 -11.769375 4.370625 -12.109375 5.390625 C-13.099375 5.060625 -14.089375 4.730625 -15.109375 4.390625 C-11.4173929 -1.19567252 -6.0081668 -0.11800132 0 0 Z " fill="#F5DA56" transform="translate(254.109375,201.609375)"/>
<path d="M0 0 C0.99 0.33 1.98 0.66 3 1 C2.01 1.33 1.02 1.66 0 2 C0 1.34 0 0.68 0 0 Z M0 2 C0 2.66 0 3.32 0 4 C-0.72805344 4.01030746 -1.45610687 4.02061493 -2.20622253 4.03123474 C-9.07717937 4.1293305 -15.94805734 4.23186183 -22.81887341 4.33933926 C-26.35097936 4.39443507 -29.88309378 4.44783313 -33.4152832 4.49731445 C-37.47876668 4.55431367 -41.54210262 4.61876325 -45.60546875 4.68359375 C-46.8702153 4.70030624 -48.13496185 4.71701874 -49.43803406 4.73423767 C-51.20930412 4.7641555 -51.20930412 4.7641555 -53.01635742 4.79467773 C-54.05338303 4.81022202 -55.09040863 4.8257663 -56.15885925 4.84178162 C-59.38347451 4.95424329 -59.38347451 4.95424329 -64 6 C-65.32 10.29 -66.64 14.58 -68 19 C-69.3447006 13.6211976 -68.76954519 9.30863557 -67 4 C-64.4008119 2.70040595 -62.38315843 2.78782661 -59.47265625 2.68359375 C-57.71912842 2.6206311 -57.71912842 2.6206311 -55.93017578 2.55639648 C-54.65384277 2.51716064 -53.37750977 2.4779248 -52.0625 2.4375 C-50.09772705 2.37381226 -50.09772705 2.37381226 -48.09326172 2.30883789 C-32.06576335 1.82440018 -16.03275646 1.90703576 0 2 Z " fill="#FADD4F" transform="translate(300,182)"/>
<path d="M0 0 C-0.51784057 5.28408749 -3.2624991 9.30041927 -5.9375 13.75 C-6.39318359 14.52988281 -6.84886719 15.30976563 -7.31835938 16.11328125 C-10.73623029 21.86811514 -10.73623029 21.86811514 -13 23 C-12.14285714 14.42857143 -12.14285714 14.42857143 -10 11 C-9.01 11 -8.02 11 -7 11 C-7.33 10.01 -7.66 9.02 -8 8 C-7.34 8 -6.68 8 -6 8 C-5.67 5.69 -5.34 3.38 -5 1 C-2 0 -2 0 0 0 Z " fill="#F8E67A" transform="translate(326,150)"/>
<path d="M0 0 C0.33 0 0.66 0 1 0 C1 1.98 1 3.96 1 6 C5.29 6 9.58 6 14 6 C14.33 7.65 14.66 9.3 15 11 C12.22957891 13.77042109 10.23466195 13.39796106 6.375 13.625 C5.18648437 13.69976562 3.99796875 13.77453125 2.7734375 13.8515625 C1.40058594 13.92503906 1.40058594 13.92503906 0 14 C0 13.01 0 12.02 0 11 C2.31 11 4.62 11 7 11 C7 10.34 7 9.68 7 9 C7.66 8.67 8.32 8.34 9 8 C6.03 8 3.06 8 0 8 C-1.125 2.25 -1.125 2.25 0 0 Z " fill="#F7F6F6" transform="translate(140,329)"/>
<path d="M0 0 C11.55 0 23.1 0 35 0 C35 0.66 35 1.32 35 2 C23.20567437 3.0574223 11.80088222 2.83375798 0 2 C0 1.34 0 0.68 0 0 Z " fill="#FBD233" transform="translate(254,203)"/>
<path d="M0 0 C1.62291962 0.00848969 1.62291962 0.00848969 3.27862549 0.01715088 C6.73307607 0.03953501 10.18648811 0.08973709 13.640625 0.140625 C15.98305793 0.16068728 18.32550713 0.17893852 20.66796875 0.1953125 C26.4092083 0.23940645 32.14984245 0.30633945 37.890625 0.390625 C38.385625 1.875625 38.385625 1.875625 38.890625 3.390625 C38.230625 3.390625 37.570625 3.390625 36.890625 3.390625 C36.560625 4.050625 36.230625 4.710625 35.890625 5.390625 C35.890625 4.070625 35.890625 2.750625 35.890625 1.390625 C20.380625 1.720625 4.870625 2.050625 -11.109375 2.390625 C-11.439375 3.380625 -11.769375 4.370625 -12.109375 5.390625 C-13.099375 5.060625 -14.089375 4.730625 -15.109375 4.390625 C-11.4173929 -1.19567252 -6.0081668 -0.11800132 0 0 Z " fill="#E8C45B" transform="translate(254.109375,201.609375)"/>
<path d="M0 0 C0.33 0 0.66 0 1 0 C1.37145697 3.3195282 1.22917568 4.67163667 -0.71484375 7.45703125 C-1.44832031 8.23433594 -2.18179687 9.01164062 -2.9375 9.8125 C-3.66839844 10.60269531 -4.39929688 11.39289063 -5.15234375 12.20703125 C-7 14 -7 14 -8 14 C-8 10.37 -8 6.74 -8 3 C-5 2 -5 2 -1 2 C-0.67 1.34 -0.34 0.68 0 0 Z " fill="#FBE14B" transform="translate(273,118)"/>
<path d="M0 0 C0.66 0 1.32 0 2 0 C1.125 4.75 1.125 4.75 0 7 C0.66 7.33 1.32 7.66 2 8 C1.01 8.495 1.01 8.495 0 9 C0 9.99 0 10.98 0 12 C-0.66 12 -1.32 12 -2 12 C-2 12.99 -2 13.98 -2 15 C-1.34 15 -0.68 15 0 15 C-0.54226981 18.79588866 -2.20127563 20.47211993 -5 23 C-6.11378736 19.68177296 -5.87728255 17.75179221 -4.78515625 14.453125 C-4.51123047 13.60878906 -4.23730469 12.76445312 -3.95507812 11.89453125 C-3.51325195 10.58548828 -3.51325195 10.58548828 -3.0625 9.25 C-2.77181641 8.36183594 -2.48113281 7.47367188 -2.18164062 6.55859375 C-1.46360682 4.36917921 -0.73614477 2.18337811 0 0 Z " fill="#FCCA08" transform="translate(190,203)"/>
<path d="M0 0 C0.33 0 0.66 0 1 0 C1.51423305 10.8750768 1.51423305 10.8750768 -2 16 C-2.039992 17.99960012 -2.04346799 20.00047242 -2 22 C-2.66 22.99 -3.32 23.98 -4 25 C-4.66 25 -5.32 25 -6 25 C-6.33 25.66 -6.66 26.32 -7 27 C-5.66001384 20.74464405 -4.11748273 14.59190847 -2.375 8.4375 C-2.14554688 7.61958984 -1.91609375 6.80167969 -1.6796875 5.95898438 C-1.1219512 3.9720488 -0.56128904 1.98593489 0 0 Z " fill="#EAB924" transform="translate(142,177)"/>
<path d="M0 0 C0.66 0.33 1.32 0.66 2 1 C1.67 1.66 1.34 2.32 1 3 C0.01 3 -0.98 3 -2 3 C-2 4.65 -2 6.3 -2 8 C-3.32 8.33 -4.64 8.66 -6 9 C-5.69381595 5.32579134 -5.24228216 4.21864487 -2.4375 1.6875 C-1.633125 1.130625 -0.82875 0.57375 0 0 Z M-13 6 C-12.67 7.32 -12.34 8.64 -12 10 C-10.02 9.67 -8.04 9.34 -6 9 C-5.67 9.99 -5.34 10.98 -5 12 C-5.33 12.66 -5.66 13.32 -6 14 C-6.66 14 -7.32 14 -8 14 C-8 13.34 -8 12.68 -8 12 C-9.65 12.33 -11.3 12.66 -13 13 C-13.93423645 9.98968256 -14.04449911 9.13349732 -13 6 Z " fill="#FBCC0E" transform="translate(197,162)"/>
<path d="M0 0 C1.91903365 2.8221083 1.99110212 4.12901932 1.75 7.625 C1 11 1 11 -1 13 C-1.69748583 14.31747324 -2.36959957 15.64914193 -3 17 C-3.66 16.67 -4.32 16.34 -5 16 C-5.1875 12.625 -5.1875 12.625 -5 9 C-4.01 8.34 -3.02 7.68 -2 7 C-2.66 5.68 -3.32 4.36 -4 3 C-2 1 -2 1 0 0 Z " fill="#FBCA06" transform="translate(213,252)"/>
<path d="M0 0 C4.75 0.75 4.75 0.75 7 3 C6.67 3.66 6.34 4.32 6 5 C5.34 5 4.68 5 4 5 C4 5.99 4 6.98 4 8 C2.35 8.66 0.7 9.32 -1 10 C-2.1875 7.25 -2.1875 7.25 -3 4 C-1.625 1.625 -1.625 1.625 0 0 Z " fill="#FDD92C" transform="translate(277,208)"/>
<path d="M0 0 C0.66 0.33 1.32 0.66 2 1 C0.54785715 3.482985 -0.91130402 5.96133947 -2.375 8.4375 C-2.7875 9.14455078 -3.2 9.85160156 -3.625 10.58007812 C-4.02460938 11.25361328 -4.42421875 11.92714844 -4.8359375 12.62109375 C-5.20251465 13.2442749 -5.5690918 13.86745605 -5.94677734 14.50952148 C-7 16 -7 16 -9 17 C-9.44117322 12.50003317 -9.52867608 10.65388883 -6.625 7.0625 C-4 5 -4 5 -2 5 C-2 3.68 -2 2.36 -2 1 C-1.34 0.67 -0.68 0.34 0 0 Z " fill="#F6E578" transform="translate(283,104)"/>
<path d="M0 0 C1.21151564 3.63454691 0.65868046 4.92121744 -0.43359375 8.54296875 C-0.75263672 9.61611328 -1.07167969 10.68925781 -1.40039062 11.79492188 C-1.74263672 12.91447266 -2.08488281 14.03402344 -2.4375 15.1875 C-2.94506836 16.88422852 -2.94506836 16.88422852 -3.46289062 18.61523438 C-4.30091031 21.41256769 -5.14689329 24.207238 -6 27 C-7.19439913 22.98559782 -6.58105242 20.32420966 -5.5625 16.25 C-5.13130859 14.49429688 -5.13130859 14.49429688 -4.69140625 12.703125 C-4.46324219 11.81109375 -4.23507813 10.9190625 -4 10 C-4.99 10 -5.98 10 -7 10 C-6.67 8.35 -6.34 6.7 -6 5 C-4 6 -4 6 -3 8 C-2.01 5.36 -1.02 2.72 0 0 Z " fill="#DCAD20" transform="translate(176,203)"/>
<path d="M0 0 C0.33 0 0.66 0 1 0 C1 1.65 1 3.3 1 5 C0.34 5 -0.32 5 -1 5 C-0.979375 6.051875 -0.95875 7.10375 -0.9375 8.1875 C-1.03586801 14.18794835 -1.03586801 14.18794835 -2 17 C-4.0625 18.3125 -4.0625 18.3125 -6 19 C-6.80967438 16.08517222 -7.21845993 14.53886783 -6.0625 11.6875 C-5.711875 11.130625 -5.36125 10.57375 -5 10 C-4.01 10 -3.02 10 -2 10 C-2.226875 9.278125 -2.45375 8.55625 -2.6875 7.8125 C-3.08519221 4.23327008 -2.10849785 2.83836249 0 0 Z " fill="#FBCA0C" transform="translate(190,148)"/>
<path d="M0 0 C0 2.64 0 5.28 0 8 C-2.90600261 9.25664978 -4.79604584 10 -8 10 C-6.52830189 2.39622642 -6.52830189 2.39622642 -4 0.5 C-2 0 -2 0 0 0 Z " fill="#FBD314" transform="translate(232,194)"/>
<path d="M0 0 C0.33 0.66 0.66 1.32 1 2 C1.66 2 2.32 2 3 2 C2.64505955 4.62655933 2.27538036 6.57968261 0.8125 8.8125 C-1.79361661 10.51995571 -3.9599355 10.20267097 -7 10 C-7.33 9.01 -7.66 8.02 -8 7 C-7.34 7 -6.68 7 -6 7 C-6 6.34 -6 5.68 -6 5 C-4.68 5.33 -3.36 5.66 -2 6 C-1.34 4.02 -0.68 2.04 0 0 Z " fill="#FED522" transform="translate(266,225)"/>
<path d="M0 0 C0.66 0.33 1.32 0.66 2 1 C2.33 1.99 2.66 2.98 3 4 C4.32 3.34 5.64 2.68 7 2 C7 2.99 7 3.98 7 5 C6.34 5 5.68 5 5 5 C5.33 6.32 5.66 7.64 6 9 C5.01 9 4.02 9 3 9 C1.31201173 10.43750191 1.31201173 10.43750191 0 12 C0.57584432 9.61435923 1.22227595 7.33317216 2 5 C1.34 5 0.68 5 0 5 C0 4.34 0 3.68 0 3 C-1.98 3 -3.96 3 -6 3 C-4 2 -2 1 0 0 Z " fill="#FBCE0C" transform="translate(193,182)"/>
<path d="M0 0 C1.66611905 -0.042721 3.33382885 -0.04063832 5 0 C6 1 6 1 6.0625 3.5625 C6.041875 4.366875 6.02125 5.17125 6 6 C3.29120665 7.35439668 0.99066732 7.06501451 -2 7 C-2 5 -2 5 0 3 C0 2.01 0 1.02 0 0 Z " fill="#F5F3F4" transform="translate(306,322)"/>
<path d="M0 0 C3.3 0.33 6.6 0.66 10 1 C10 1.66 10 2.32 10 3 C8.02 3 6.04 3 4 3 C3.34 4.32 2.68 5.64 2 7 C1.01 7 0.02 7 -1 7 C-1.33 8.65 -1.66 10.3 -2 12 C-3.61272291 7.25795384 -1.86629154 4.4790997 0 0 Z " fill="#F6D327" transform="translate(166,97)"/>
<path d="M0 0 C0.33 1.32 0.66 2.64 1 4 C0.01 4 -0.98 4 -2 4 C-2 5.65 -2 7.3 -2 9 C-2.61875 9.061875 -3.2375 9.12375 -3.875 9.1875 C-6.27761141 9.828919 -6.27761141 9.828919 -7.25 12.5625 C-7.4975 13.366875 -7.745 14.17125 -8 15 C-8.99 14.67 -9.98 14.34 -11 14 C-7.46386286 9.21224044 -3.85516296 4.53548584 0 0 Z " fill="#F3CD40" transform="translate(237,209)"/>
<path d="M0 0 C0.33 0 0.66 0 1 0 C1.29240794 3.09194322 1.2622862 4.59815511 -0.4609375 7.23828125 C-1.09257812 7.92277344 -1.72421875 8.60726562 -2.375 9.3125 C-3.00148438 10.00988281 -3.62796875 10.70726562 -4.2734375 11.42578125 C-6 13 -6 13 -8 13 C-8 12.01 -8 11.02 -8 10 C-7.34 10 -6.68 10 -6 10 C-4.74335022 7.09399739 -4 5.20395416 -4 2 C-2.68 2 -1.36 2 0 2 C0 1.34 0 0.68 0 0 Z " fill="#F5D74A" transform="translate(289,203)"/>
<path d="M0 0 C0.99 0 1.98 0 3 0 C1.7205886 7.60913098 -0.42756933 14.73225897 -3 22 C-4.18359054 18.44922838 -3.70430145 17.32270518 -2.625 13.8125 C-1.27381406 9.17281128 -0.45330713 4.80505558 0 0 Z " fill="#ECCA3E" transform="translate(228,202)"/>
<path d="M0 0 C-0.99 0.66 -1.98 1.32 -3 2 C-4.24247222 5.09710423 -4.24247222 5.09710423 -5.1875 8.625 C-5.53167969 9.81351563 -5.87585938 11.00203125 -6.23046875 12.2265625 C-6.48441406 13.14179688 -6.73835937 14.05703125 -7 15 C-8.5478186 9.83675438 -7.69844734 5.09534201 -6 0 C-3.50907189 -1.24546405 -2.58919267 -0.7767578 0 0 Z " fill="#F0D044" transform="translate(239,186)"/>
<path d="M0 0 C0.33 0 0.66 0 1 0 C1 1.98 1 3.96 1 6 C5.29 6 9.58 6 14 6 C14.33 7.32 14.66 8.64 15 10 C14.34 10 13.68 10 13 10 C13 9.34 13 8.68 13 8 C8.71 8 4.42 8 0 8 C-1 2 -1 2 0 0 Z " fill="#F0EFF0" transform="translate(140,329)"/>
<path d="M0 0 C0 4.51910433 -2.27026252 7.49436814 -5 11 C-6.93477503 12.63572315 -8.77360624 13.75736162 -11 15 C-9.58319756 10.67953102 -7.46236215 7.99538801 -4.375 4.6875 C-3.55773437 3.80449219 -2.74046875 2.92148438 -1.8984375 2.01171875 C-0.95871094 1.01591797 -0.95871094 1.01591797 0 0 Z " fill="#EFCB32" transform="translate(202,152)"/>
<path d="M0 0 C0.99 0 1.98 0 3 0 C2.34 2.31 1.68 4.62 1 7 C-3.29 7 -7.58 7 -12 7 C-12 6.67 -12 6.34 -12 6 C-9.69 6 -7.38 6 -5 6 C-4.67 5.34 -4.34 4.68 -4 4 C-2.68 4.66 -1.36 5.32 0 6 C-0.2784375 4.7934375 -0.2784375 4.7934375 -0.5625 3.5625 C-0.706875 2.716875 -0.85125 1.87125 -1 1 C-0.67 0.67 -0.34 0.34 0 0 Z " fill="#FCB809" transform="translate(165,230)"/>
<path d="M0 0 C-0.4452885 5.27315333 -1.08373163 10.01770224 -3 15 C-3.33 15 -3.66 15 -4 15 C-4.08107583 13.06318839 -4.13922475 11.1254066 -4.1875 9.1875 C-4.22230469 8.10855469 -4.25710937 7.02960938 -4.29296875 5.91796875 C-4 3 -4 3 -2.55078125 1.11328125 C-1 0 -1 0 0 0 Z " fill="#D9AF22" transform="translate(181,188)"/>
<path d="M0 0 C1.60031344 3.20062687 0.03173691 5.72271806 -1 9 C-1.99 9 -2.98 9 -4 9 C-6 6 -6 6 -6 3 C-4.68 3 -3.36 3 -2 3 C-1.34 2.01 -0.68 1.02 0 0 Z " fill="#F8C409" transform="translate(206,281)"/>
<path d="M0 0 C0.69738281 0.01804688 1.39476562 0.03609375 2.11328125 0.0546875 C3.82611539 0.10161446 5.53823824 0.17335395 7.25 0.25 C7.25 0.58 7.25 0.91 7.25 1.25 C2.3 1.58 -2.65 1.91 -7.75 2.25 C-8.08 3.24 -8.41 4.23 -8.75 5.25 C-9.74 4.92 -10.73 4.59 -11.75 4.25 C-8.36399708 -0.18322032 -5.23938601 -0.25751236 0 0 Z " fill="#EAC84D" transform="translate(250.75,201.75)"/>
<path d="M0 0 C0.33 1.65 0.66 3.3 1 5 C0.401875 4.814375 -0.19625 4.62875 -0.8125 4.4375 C-3.16408762 3.77906313 -3.16408762 3.77906313 -6 5 C-6 3.68 -6 2.36 -6 1 C-4 0 -4 0 0 0 Z " fill="#FCC406" transform="translate(151,171)"/>
<path d="M0 0 C1.48165503 2.96331006 0.48358108 4.89704017 -0.3125 8.0625 C-0.57675781 9.14660156 -0.84101563 10.23070312 -1.11328125 11.34765625 C-2 14 -2 14 -4 15 C-4.59720137 9.17728663 -2.528243 5.0790596 0 0 Z " fill="#FDD10D" transform="translate(159,127)"/>
<path d="M0 0 C0.66 0.33 1.32 0.66 2 1 C2.125 3.375 2.125 3.375 2 6 C1.34 6.66 0.68 7.32 0 8 C-0.71408334 9.98356483 -1.38617742 11.98315437 -2 14 C-2.33 14 -2.66 14 -3 14 C-2.58846263 9.02906176 -2.20399168 4.55491614 0 0 Z " fill="#FBD60D" transform="translate(165,104)"/>
<path d="M0 0 C1.32 0.33 2.64 0.66 4 1 C4 1.66 4 2.32 4 3 C4.33 3.66 4.66 4.32 5 5 C4.34 5 3.68 5 3 5 C2.34 6.65 1.68 8.3 1 10 C0.67 10 0.34 10 0 10 C0 6.7 0 3.4 0 0 Z " fill="#FBCB09" transform="translate(147,159)"/>
<path d="M0 0 C0.99 0.33 1.98 0.66 3 1 C2.6875 2.9375 2.6875 2.9375 2 5 C1.01 5.33 0.02 5.66 -1 6 C-1.66 6.99 -2.32 7.98 -3 9 C-2.67 6.69 -2.34 4.38 -2 2 C-1.34 2 -0.68 2 0 2 C0 1.34 0 0.68 0 0 Z " fill="#EDB91C" transform="translate(180,236)"/>
<path d="M0 0 C1.32 0.33 2.64 0.66 4 1 C4 1.66 4 2.32 4 3 C3.01 3.66 2.02 4.32 1 5 C0.67 5.99 0.34 6.98 0 8 C-0.99 8.33 -1.98 8.66 -3 9 C-3 8.01 -3 7.02 -3 6 C-2.34 6 -1.68 6 -1 6 C-1 4.68 -1 3.36 -1 2 C-0.67 1.34 -0.34 0.68 0 0 Z " fill="#FCD62E" transform="translate(273,218)"/>
<path d="M0 0 C0 3.77910478 -0.99703962 4.46106101 -3.5 7.1875 C-4.47453125 8.26064453 -4.47453125 8.26064453 -5.46875 9.35546875 C-5.9740625 9.89816406 -6.479375 10.44085938 -7 11 C-7 8 -7 8 -5 5 C-4.34 5 -3.68 5 -3 5 C-3 3.68 -3 2.36 -3 1 C-2.01 0.67 -1.02 0.34 0 0 Z " fill="#ECD86E" transform="translate(273,121)"/>
<path d="M0 0 C0.66 0.66 1.32 1.32 2 2 C0.68 4.97 -0.64 7.94 -2 11 C-3.17333333 6.30666667 -3.17333333 6.30666667 -2 3 C-1.34 2.01 -0.68 1.02 0 0 Z " fill="#FAE567" transform="translate(277,110)"/>
<path d="M0 0 C1.32 0.66 2.64 1.32 4 2 C4 2.99 4 3.98 4 5 C1 6 1 6 -2 6 C-1.49396008 3.83125748 -1.00016187 2.00032373 0 0 Z " fill="#FBC003" transform="translate(179,243)"/>
<path d="M0 0 C0.66 0 1.32 0 2 0 C2 1.32 2 2.64 2 4 C2.99 3.34 3.98 2.68 5 2 C5 3.32 5 4.64 5 6 C3.35 6.33 1.7 6.66 0 7 C-0.38133299 5.0085944 -0.71325582 3.00720923 -1 1 C-0.67 0.67 -0.34 0.34 0 0 Z " fill="#F0D236" transform="translate(186,165)"/>
<path d="M0 0 C-0.66 3.3 -1.32 6.6 -2 10 C-2.33 10 -2.66 10 -3 10 C-3.33 7.03 -3.66 4.06 -4 1 C-2 0 -2 0 0 0 Z " fill="#FAC00D" transform="translate(172,216)"/>
<path d="M0 0 C-0.33 0.66 -0.66 1.32 -1 2 C-4.63 2 -8.26 2 -12 2 C-8.24587786 -1.75412214 -4.98458941 -1.01957511 0 0 Z " fill="#FEDA29" transform="translate(263,236)"/>
<path d="M0 0 C2.08954032 4.17908064 2.16552619 4.80410573 1 9 C0.01 9 -0.98 9 -2 9 C-1.34 6.03 -0.68 3.06 0 0 Z " fill="#EEC029" transform="translate(150,150)"/>
<path d="M0 0 C2.97 0 5.94 0 9 0 C9 0.66 9 1.32 9 2 C6.08517222 2.80967438 4.53886783 3.21845993 1.6875 2.0625 C1.130625 1.711875 0.57375 1.36125 0 1 C0 0.67 0 0.34 0 0 Z " fill="#FBD625" transform="translate(195,130)"/>
<path d="M0 0 C0.33 0 0.66 0 1 0 C1.1875 2.375 1.1875 2.375 1 5 C0.01 5.66 -0.98 6.32 -2 7 C-2.66 5.35 -3.32 3.7 -4 2 C-2.68 2 -1.36 2 0 2 C0 1.34 0 0.68 0 0 Z " fill="#F3D33F" transform="translate(289,203)"/>
</svg>
